<svg xmlns="http://www.w3.org/2000/svg" viewBox="0 0 64 64" fill="none" role="img" aria-label="Huella de perro">
  <g fill="#7f6642" transform="translate(32 34) scale(1.08 0.88) translate(-32 -34)">
    <!-- Dedos mas pequenos y separados -->
    <ellipse cx="8.5" cy="25" rx="5.8" ry="6.2" transform="rotate(-20 8.5 25)"/>
    <ellipse cx="22" cy="16" rx="5.5" ry="6" transform="rotate(-7 22 16)"/>
    <ellipse cx="42" cy="16" rx="5.5" ry="6" transform="rotate(7 42 16)"/>
    <ellipse cx="55.5" cy="25" rx="5.8" ry="6.2" transform="rotate(20 55.5 25)"/>

    <!-- Almohadilla central -->
    <path d="
      M 32 30.5
      C 42.8 30.5 53 35.2 54 43.2
      C 54.8 49.2 50.5 55.2 42.8 56.2
      C 38.4 56.8 35 55.2 32 52.8
      C 29 55.2 25.6 56.8 21.2 56.2
      C 13.5 55.2 9.2 49.2 10 43.2
      C 11 35.2 21.2 30.5 32 30.5
      Z
    "/>
  </g>
</svg>
